<svg class="main-svg" xmlns="http://www.w3.org/2000/svg" xmlns:xlink="http://www.w3.org/1999/xlink" width="550" height="700" style="" viewBox="0 0 550 700"><rect x="0" y="0" width="550" height="700" style="fill: rgb(255, 255, 255); fill-opacity: 1;"/><defs id="defs-f1e39d"><g class="clips"><clipPath id="clipf1e39dxyplot" class="plotclip"><rect width="317" height="221.00000000000003"/></clipPath><clipPath class="axesclip" id="clipf1e39dx"><rect x="80" y="0" width="317" height="700"/></clipPath><clipPath class="axesclip" id="clipf1e39dy"><rect x="0" y="100" width="550" height="221.00000000000003"/></clipPath><clipPath class="axesclip" id="clipf1e39dxy"><rect x="80" y="100" width="317" height="221.00000000000003"/></clipPath></g><g class="gradients"/></defs><g class="bglayer"><rect class="bg" x="80" y="100" width="317" height="221.00000000000003" style="fill: rgb(229, 236, 246); fill-opacity: 1; stroke-width: 0;"/></g><g class="layer-below"><g class="imagelayer"/><g class="shapelayer"/></g><g class="cartesianlayer"><g class="subplot xy"><g class="layer-subplot"><g class="shapelayer"/><g class="imagelayer"/></g><g class="gridlayer"><g class="x"><path class="xgrid crisp" transform="translate(151.54000000000002,0)" d="M0,100v221.00000000000003" style="stroke: rgb(255, 255, 255); stroke-opacity: 1; stroke-width: 1px;"/><path class="xgrid crisp" transform="translate(238.94,0)" d="M0,100v221.00000000000003" style="stroke: rgb(255, 255, 255); stroke-opacity: 1; stroke-width: 1px;"/><path class="xgrid crisp" transform="translate(326.34000000000003,0)" d="M0,100v221.00000000000003" style="stroke: rgb(255, 255, 255); stroke-opacity: 1; stroke-width: 1px;"/></g><g class="y"><path class="ygrid crisp" transform="translate(0,276.8)" d="M80,0h317" style="stroke: rgb(255, 255, 255); stroke-opacity: 1; stroke-width: 1px;"/><path class="ygrid crisp" transform="translate(0,232.6)" d="M80,0h317" style="stroke: rgb(255, 255, 255); stroke-opacity: 1; stroke-width: 1px;"/><path class="ygrid crisp" transform="translate(0,188.4)" d="M80,0h317" style="stroke: rgb(255, 255, 255); stroke-opacity: 1; stroke-width: 1px;"/><path class="ygrid crisp" transform="translate(0,144.2)" d="M80,0h317" style="stroke: rgb(255, 255, 255); stroke-opacity: 1; stroke-width: 1px;"/></g></g><g class="zerolinelayer"/><path class="xlines-below"/><path class="ylines-below"/><g class="overlines-below"/><g class="xaxislayer-below"/><g class="yaxislayer-below"/><g class="overaxes-below"/><g class="plot" transform="translate(80, 100)" clip-path="url('#clipf1e39dxyplot')"><g class="scatterlayer mlayer"><g class="trace scatter tracea011d8" style="stroke-miterlimit: 2; opacity: 1;"><g class="fills"/><g class="errorbars"/><g class="lines"/><g class="points"><path class="point" transform="translate(25.23,132.28)" d="M7.5,0A7.5,7.5 0 1,1 0,-7.5A7.5,7.5 0 0,1 7.5,0Z" style="opacity: 1; stroke-width: 1px; fill: rgb(255, 0, 0); fill-opacity: 1; stroke: rgb(25, 25, 112); stroke-opacity: 1;"/><path class="point" transform="translate(67.59,132.28)" d="M7.5,0A7.5,7.5 0 1,1 0,-7.5A7.5,7.5 0 0,1 7.5,0Z" style="opacity: 1; stroke-width: 1px; fill: rgb(255, 0, 0); fill-opacity: 1; stroke: rgb(25, 25, 112); stroke-opacity: 1;"/><path class="point" transform="translate(174.32,132.28)" d="M7.5,0A7.5,7.5 0 1,1 0,-7.5A7.5,7.5 0 0,1 7.5,0Z" style="opacity: 1; stroke-width: 1px; fill: rgb(255, 0, 0); fill-opacity: 1; stroke: rgb(25, 25, 112); stroke-opacity: 1;"/><path class="point" transform="translate(231.56,132.28)" d="M7.5,0A7.5,7.5 0 1,1 0,-7.5A7.5,7.5 0 0,1 7.5,0Z" style="opacity: 1; stroke-width: 1px; fill: rgb(255, 0, 0); fill-opacity: 1; stroke: rgb(25, 25, 112); stroke-opacity: 1;"/></g><g class="text"/></g><g class="trace scatter trace34bb54" style="stroke-miterlimit: 2; opacity: 1;"><g class="fills"/><g class="errorbars"/><g class="lines"/><g class="points"><path class="point" transform="translate(98.14,163.21)" d="M9.75,0L0,9.75L-9.75,0L0,-9.75Z" style="opacity: 1; stroke-width: 1px; fill: rgb(0, 128, 0); fill-opacity: 1; stroke: rgb(25, 25, 112); stroke-opacity: 1;"/><path class="point" transform="translate(139.98,146.07)" d="M9.75,0L0,9.75L-9.75,0L0,-9.75Z" style="opacity: 1; stroke-width: 1px; fill: rgb(0, 128, 0); fill-opacity: 1; stroke: rgb(25, 25, 112); stroke-opacity: 1;"/><path class="point" transform="translate(240.44,119.65)" d="M9.75,0L0,9.75L-9.75,0L0,-9.75Z" style="opacity: 1; stroke-width: 1px; fill: rgb(0, 128, 0); fill-opacity: 1; stroke: rgb(25, 25, 112); stroke-opacity: 1;"/><path class="point" transform="translate(291.77,107)" d="M9.75,0L0,9.75L-9.75,0L0,-9.75Z" style="opacity: 1; stroke-width: 1px; fill: rgb(0, 128, 0); fill-opacity: 1; stroke: rgb(25, 25, 112); stroke-opacity: 1;"/></g><g class="text"/></g><g class="trace scatter trace654322" style="stroke-miterlimit: 2; opacity: 1;"><g class="fills"/><g class="errorbars"/><g class="lines"/><g class="points"><path class="point" transform="translate(34.97,161.68)" d="M3.75,-8.66V8.66L-7.5,0Z" style="opacity: 1; stroke-width: 1px; fill: rgb(255, 255, 0); fill-opacity: 1; stroke: rgb(25, 25, 112); stroke-opacity: 1;"/><path class="point" transform="translate(74.31,145.59)" d="M3.75,-8.66V8.66L-7.5,0Z" style="opacity: 1; stroke-width: 1px; fill: rgb(255, 255, 0); fill-opacity: 1; stroke: rgb(25, 25, 112); stroke-opacity: 1;"/><path class="point" transform="translate(162.71,119.6)" d="M3.75,-8.66V8.66L-7.5,0Z" style="opacity: 1; stroke-width: 1px; fill: rgb(255, 255, 0); fill-opacity: 1; stroke: rgb(25, 25, 112); stroke-opacity: 1;"/><path class="point" transform="translate(207.46,106.94)" d="M3.75,-8.66V8.66L-7.5,0Z" style="opacity: 1; stroke-width: 1px; fill: rgb(255, 255, 0); fill-opacity: 1; stroke: rgb(25, 25, 112); stroke-opacity: 1;"/></g><g class="text"/></g><g class="trace scatter tracedd6cd8" style="stroke-miterlimit: 2; opacity: 1;"><g class="fills"/><g class="errorbars"/><g class="lines"/><g class="points"><path class="point" transform="translate(193.5,196.91)" d="M0,4.24l4.24,4.24l4.24,-4.24l-4.24,-4.24l4.24,-4.24l-4.24,-4.24l-4.24,4.24l-4.24,-4.24l-4.24,4.24l4.24,4.24l-4.24,4.24l4.24,4.24Z" style="opacity: 1; stroke-width: 1px; fill: rgb(0, 0, 255); fill-opacity: 1; stroke: rgb(25, 25, 112); stroke-opacity: 1;"/><path class="point" transform="translate(205.33,168.51)" d="M0,4.24l4.24,4.24l4.24,-4.24l-4.24,-4.24l4.24,-4.24l-4.24,-4.24l-4.24,4.24l-4.24,-4.24l-4.24,4.24l4.24,4.24l-4.24,4.24l4.24,4.24Z" style="opacity: 1; stroke-width: 1px; fill: rgb(0, 0, 255); fill-opacity: 1; stroke: rgb(25, 25, 112); stroke-opacity: 1;"/><path class="point" transform="translate(233.14,91.53)" d="M0,4.24l4.24,4.24l4.24,-4.24l-4.24,-4.24l4.24,-4.24l-4.24,-4.24l-4.24,4.24l-4.24,-4.24l-4.24,4.24l4.24,4.24l-4.24,4.24l4.24,4.24Z" style="opacity: 1; stroke-width: 1px; fill: rgb(0, 0, 255); fill-opacity: 1; stroke: rgb(25, 25, 112); stroke-opacity: 1;"/><path class="point" transform="translate(247.76,43.52)" d="M0,4.24l4.24,4.24l4.24,-4.24l-4.24,-4.24l4.24,-4.24l-4.24,-4.24l-4.24,4.24l-4.24,-4.24l-4.24,4.24l4.24,4.24l-4.24,4.24l4.24,4.24Z" style="opacity: 1; stroke-width: 1px; fill: rgb(0, 0, 255); fill-opacity: 1; stroke: rgb(25, 25, 112); stroke-opacity: 1;"/></g><g class="text"/></g><g class="trace scatter tracef842f1" style="stroke-miterlimit: 2; opacity: 1;"><g class="fills"/><g class="errorbars"/><g class="lines"/><g class="points"><path class="point" transform="translate(117.97,132.28)" d="M7.5,0A7.5,7.5 0 1,1 0,-7.5A7.5,7.5 0 0,1 7.5,0Z" style="opacity: 1; stroke-width: 1px; fill: rgb(0, 0, 0); fill-opacity: 1; stroke: rgb(0, 0, 0); stroke-opacity: 1;"/></g><g class="text"/></g><g class="trace scatter trace92ab53" style="stroke-miterlimit: 2; opacity: 1;"><g class="fills"/><g class="errorbars"/><g class="lines"/><g class="points"><path class="point" transform="translate(189.1,132.31)" d="M9.75,0L0,9.75L-9.75,0L0,-9.75Z" style="opacity: 1; stroke-width: 1px; fill: rgb(0, 0, 0); fill-opacity: 1; stroke: rgb(0, 0, 0); stroke-opacity: 1;"/></g><g class="text"/></g><g class="trace scatter traceb8c9ad" style="stroke-miterlimit: 2; opacity: 1;"><g class="fills"/><g class="errorbars"/><g class="lines"/><g class="points"><path class="point" transform="translate(117.96,132.26)" d="M3.75,-8.66V8.66L-7.5,0Z" style="opacity: 1; stroke-width: 1px; fill: rgb(0, 0, 0); fill-opacity: 1; stroke: rgb(0, 0, 0); stroke-opacity: 1;"/></g><g class="text"/></g><g class="trace scatter trace3654c5" style="stroke-miterlimit: 2; opacity: 1;"><g class="fills"/><g class="errorbars"/><g class="lines"/><g class="points"><path class="point" transform="translate(218.92,132.28)" d="M0,4.24l4.24,4.24l4.24,-4.24l-4.24,-4.24l4.24,-4.24l-4.24,-4.24l-4.24,4.24l-4.24,-4.24l-4.24,4.24l4.24,4.24l-4.24,4.24l4.24,4.24Z" style="opacity: 1; stroke-width: 1px; fill: rgb(0, 0, 0); fill-opacity: 1; stroke: rgb(0, 0, 0); stroke-opacity: 1;"/></g><g class="text"/></g></g></g><g class="overplot"/><path class="xlines-above crisp" d="M79,321.5H397" style="fill: none; stroke-width: 1px; stroke: rgb(255, 255, 255); stroke-opacity: 1;"/><path class="ylines-above crisp" d="M79.5,100V321" style="fill: none; stroke-width: 1px; stroke: rgb(255, 255, 255); stroke-opacity: 1;"/><g class="overlines-above"/><g class="xaxislayer-above"><g class="xtick"><text text-anchor="middle" x="0" y="336.4" transform="translate(151.54000000000002,0)" style="font-family: 'Open Sans', verdana, arial, sans-serif; font-size: 12px; fill: rgb(42, 63, 95); fill-opacity: 1; white-space: pre;">500</text></g><g class="xtick"><text text-anchor="middle" x="0" y="336.4" transform="translate(238.94,0)" style="font-family: 'Open Sans', verdana, arial, sans-serif; font-size: 12px; fill: rgb(42, 63, 95); fill-opacity: 1; white-space: pre;">600</text></g><g class="xtick"><text text-anchor="middle" x="0" y="336.4" transform="translate(326.34000000000003,0)" style="font-family: 'Open Sans', verdana, arial, sans-serif; font-size: 12px; fill: rgb(42, 63, 95); fill-opacity: 1; white-space: pre;">700</text></g></g><g class="yaxislayer-above"><g class="ytick"><text text-anchor="end" x="76.6" y="4.199999999999999" transform="translate(0,321)" style="font-family: 'Open Sans', verdana, arial, sans-serif; font-size: 12px; fill: rgb(42, 63, 95); fill-opacity: 1; white-space: pre;">500</text></g><g class="ytick"><text text-anchor="end" x="76.6" y="4.199999999999999" transform="translate(0,276.8)" style="font-family: 'Open Sans', verdana, arial, sans-serif; font-size: 12px; fill: rgb(42, 63, 95); fill-opacity: 1; white-space: pre;">1000</text></g><g class="ytick"><text text-anchor="end" x="76.6" y="4.199999999999999" transform="translate(0,232.6)" style="font-family: 'Open Sans', verdana, arial, sans-serif; font-size: 12px; fill: rgb(42, 63, 95); fill-opacity: 1; white-space: pre;">1500</text></g><g class="ytick"><text text-anchor="end" x="76.6" y="4.199999999999999" transform="translate(0,188.4)" style="font-family: 'Open Sans', verdana, arial, sans-serif; font-size: 12px; fill: rgb(42, 63, 95); fill-opacity: 1; white-space: pre;">2000</text></g><g class="ytick"><text text-anchor="end" x="76.6" y="4.199999999999999" transform="translate(0,144.2)" style="font-family: 'Open Sans', verdana, arial, sans-serif; font-size: 12px; fill: rgb(42, 63, 95); fill-opacity: 1; white-space: pre;">2500</text></g><g class="ytick"><text text-anchor="end" x="76.6" y="4.199999999999999" transform="translate(0,100)" style="font-family: 'Open Sans', verdana, arial, sans-serif; font-size: 12px; fill: rgb(42, 63, 95); fill-opacity: 1; white-space: pre;">3000</text></g></g><g class="overaxes-above"/></g></g><g class="polarlayer"/><g class="ternarylayer"/><g class="geolayer"/><g class="funnelarealayer"/><g class="pielayer"/><g class="treemaplayer"/><g class="sunburstlayer"/><g class="glimages"/><defs id="topdefs-f1e39d"><g class="clips"/><clipPath id="legendf1e39d"><rect width="135" height="86" x="0" y="0"/></clipPath></defs><g class="layer-above"><g class="imagelayer"/><g class="shapelayer"/></g><g class="infolayer"><g class="legend" pointer-events="all" transform="translate(403.34000000000003, 100)"><rect class="bg" shape-rendering="crispEdges" width="135" height="86" x="0" y="0" style="stroke: rgb(68, 68, 68); stroke-opacity: 1; fill: rgb(255, 255, 255); fill-opacity: 1; stroke-width: 0px;"/><g class="scrollbox" transform="translate(0, 0)" clip-path="url('#legendf1e39d')"><g class="groups"><g class="traces" transform="translate(0, 14.5)" style="opacity: 1;"><text class="legendtext user-select-none" text-anchor="start" x="40" y="4.680000000000001" style="font-family: 'Open Sans', verdana, arial, sans-serif; font-size: 12px; fill: rgb(42, 63, 95); fill-opacity: 1; white-space: pre;">CO₂ Cap</text><g class="layers" style="opacity: 1;"><g class="legendfill"/><g class="legendlines"/><g class="legendsymbols"><g class="legendpoints"><path class="scatterpts" transform="translate(20,0)" d="M7.5,0A7.5,7.5 0 1,1 0,-7.5A7.5,7.5 0 0,1 7.5,0Z" style="opacity: 1; stroke-width: 1px; fill: rgb(255, 0, 0); fill-opacity: 1; stroke: rgb(25, 25, 112); stroke-opacity: 1;"/></g></g></g><rect class="legendtoggle" pointer-events="all" x="0" y="-9.5" width="129.84375" height="19" style="cursor: pointer; fill: rgb(0, 0, 0); fill-opacity: 0;"/></g><g class="traces" transform="translate(0, 33.5)" style="opacity: 1;"><text class="legendtext user-select-none" text-anchor="start" x="40" y="4.680000000000001" style="font-family: 'Open Sans', verdana, arial, sans-serif; font-size: 12px; fill: rgb(42, 63, 95); fill-opacity: 1; white-space: pre;">RES Min Quota</text><g class="layers" style="opacity: 1;"><g class="legendfill"/><g class="legendlines"/><g class="legendsymbols"><g class="legendpoints"><path class="scatterpts" transform="translate(20,0)" d="M9.75,0L0,9.75L-9.75,0L0,-9.75Z" style="opacity: 1; stroke-width: 1px; fill: rgb(0, 128, 0); fill-opacity: 1; stroke: rgb(25, 25, 112); stroke-opacity: 1;"/></g></g></g><rect class="legendtoggle" pointer-events="all" x="0" y="-9.5" width="129.84375" height="19" style="cursor: pointer; fill: rgb(0, 0, 0); fill-opacity: 0;"/></g><g class="traces" transform="translate(0, 52.5)" style="opacity: 1;"><text class="legendtext user-select-none" text-anchor="start" x="40" y="4.680000000000001" style="font-family: 'Open Sans', verdana, arial, sans-serif; font-size: 12px; fill: rgb(42, 63, 95); fill-opacity: 1; white-space: pre;">CO₂ Tax</text><g class="layers" style="opacity: 1;"><g class="legendfill"/><g class="legendlines"/><g class="legendsymbols"><g class="legendpoints"><path class="scatterpts" transform="translate(20,0)" d="M3.75,-8.66V8.66L-7.5,0Z" style="opacity: 1; stroke-width: 1px; fill: rgb(255, 255, 0); fill-opacity: 1; stroke: rgb(25, 25, 112); stroke-opacity: 1;"/></g></g></g><rect class="legendtoggle" pointer-events="all" x="0" y="-9.5" width="129.84375" height="19" style="cursor: pointer; fill: rgb(0, 0, 0); fill-opacity: 0;"/></g><g class="traces" transform="translate(0, 71.5)" style="opacity: 1;"><text class="legendtext user-select-none" text-anchor="start" x="40" y="4.680000000000001" style="font-family: 'Open Sans', verdana, arial, sans-serif; font-size: 12px; fill: rgb(42, 63, 95); fill-opacity: 1; white-space: pre;">FIT</text><g class="layers" style="opacity: 1;"><g class="legendfill"/><g class="legendlines"/><g class="legendsymbols"><g class="legendpoints"><path class="scatterpts" transform="translate(20,0)" d="M0,4.24l4.24,4.24l4.24,-4.24l-4.24,-4.24l4.24,-4.24l-4.24,-4.24l-4.24,4.24l-4.24,-4.24l-4.24,4.24l4.24,4.24l-4.24,4.24l4.24,4.24Z" style="opacity: 1; stroke-width: 1px; fill: rgb(0, 0, 255); fill-opacity: 1; stroke: rgb(25, 25, 112); stroke-opacity: 1;"/></g></g></g><rect class="legendtoggle" pointer-events="all" x="0" y="-9.5" width="129.84375" height="19" style="cursor: pointer; fill: rgb(0, 0, 0); fill-opacity: 0;"/></g></g></g><rect class="scrollbar" rx="20" ry="3" width="0" height="0" x="0" y="0" style="fill: rgb(128, 139, 164); fill-opacity: 1;"/></g><g class="g-gtitle"/><g class="g-xtitle"><text class="xtitle" x="238.5" y="363.6125" text-anchor="middle" style="font-family: 'Open Sans', verdana, arial, sans-serif; font-size: 14px; fill: rgb(42, 63, 95); opacity: 1; font-weight: normal; white-space: pre;">Total System Cost (in bn €)</text></g><g class="g-ytitle"><text class="ytitle" transform="rotate(-90,21.278125000000003,210.5)" x="21.278125000000003" y="210.5" text-anchor="middle" style="font-family: 'Open Sans', verdana, arial, sans-serif; font-size: 14px; fill: rgb(42, 63, 95); opacity: 1; font-weight: normal; white-space: pre;">Total CO₂ Emissions (in mio t)</text></g></g></svg>